<?xml version="1.0" standalone="no"?>
<!DOCTYPE svg PUBLIC "-//W3C//DTD SVG 20010904//EN"
 "http://www.w3.org/TR/2001/REC-SVG-20010904/DTD/svg10.dtd">
<svg version="1.0" xmlns="http://www.w3.org/2000/svg"
 width="512.000000pt" height="512.000000pt" viewBox="0 0 512.000000 512.000000"
 preserveAspectRatio="xMidYMid meet">
<metadata>
Created by potrace 1.11, written by Peter Selinger 2001-2013
</metadata>
<g transform="translate(0.000000,512.000000) scale(0.100000,-0.100000)"
fill="#000000" stroke="none">
<path d="M2320 5089 c-135 -23 -200 -40 -324 -89 -362 -142 -681 -448 -831
-800 -36 -84 -81 -216 -90 -261 -3 -13 -10 -49 -15 -79 -30 -155 -32 -344 -6
-555 10 -78 48 -239 86 -360 60 -189 212 -500 338 -689 15 -21 31 -47 37 -57
25 -46 155 -226 345 -479 354 -471 442 -609 511 -798 42 -112 98 -156 197
-154 84 1 143 50 176 144 62 176 172 349 500 788 126 168 237 315 247 328 10
12 19 24 19 27 0 3 35 58 79 123 90 134 201 325 250 427 35 74 121 273 125
290 1 6 12 42 24 81 25 82 58 214 66 264 3 19 8 46 11 60 17 82 24 313 12 440
-41 444 -302 872 -682 1120 -315 205 -716 290 -1075 229z m425 -804 c102 -28
160 -56 247 -118 130 -93 240 -259 274 -412 17 -76 21 -113 19 -187 -3 -97 -9
-130 -36 -211 -75 -223 -237 -384 -469 -466 -124 -43 -270 -45 -430 -3 -94 24
-241 115 -316 194 -92 97 -172 254 -191 370 -9 60 -10 201 -1 253 39 219 188
426 376 520 64 32 157 66 196 71 16 2 31 6 34 8 2 3 51 5 109 4 77 0 126 -6
188 -23z"/>
<path d="M1472 1566 c-135 -100 -247 -245 -301 -391 -60 -161 -46 -367 35
-526 73 -144 229 -306 378 -391 35 -20 210 -106 241 -119 99 -40 304 -92 420
-105 28 -3 70 -10 95 -14 49 -9 430 -5 495 5 226 35 394 83 563 161 40 19 77
34 82 34 6 0 10 5 10 10 0 6 4 10 9 10 15 0 97 56 177 121 315 255 400 634
212 941 -16 26 -26 53 -22 59 4 7 3 9 -3 6 -6 -4 -22 8 -36 26 -14 17 -41 48
-59 67 -140 143 -211 175 -285 130 -61 -37 -84 -103 -58 -165 6 -17 41 -55 76
-85 112 -96 171 -177 200 -275 91 -299 -205 -608 -696 -731 -62 -15 -164 -34
-220 -41 -127 -15 -505 -7 -534 12 -4 2 -24 6 -46 9 -184 29 -431 132 -567
237 -160 125 -236 258 -233 409 2 136 43 212 190 355 84 82 103 107 109 138
14 76 -55 157 -134 157 -29 0 -52 -11 -98 -44z"/>
</g>
</svg>
